<?xml version="1.0" encoding="UTF-8" standalone="no"?>
<!-- Created with Inkscape (http://www.inkscape.org/) -->

<svg
   xmlns:dc="http://purl.org/dc/elements/1.1/"
   xmlns:cc="http://creativecommons.org/ns#"
   xmlns:rdf="http://www.w3.org/1999/02/22-rdf-syntax-ns#"
   xmlns:svg="http://www.w3.org/2000/svg"
   xmlns="http://www.w3.org/2000/svg"
   xmlns:xlink="http://www.w3.org/1999/xlink"
   xmlns:sodipodi="http://sodipodi.sourceforge.net/DTD/sodipodi-0.dtd"
   xmlns:inkscape="http://www.inkscape.org/namespaces/inkscape"
   width="1024"
   height="1024"
   viewBox="0 0 1024 1024"
   id="svg4136"
   version="1.1"
   inkscape:version="0.91 r13725"
   sodipodi:docname="New document 2.2016_12_26_12_53_08.0.svg"
   inkscape:export-filename="/home/adam/New document 2.2016_12_26_12_53_08.0.svg.png"
   inkscape:export-xdpi="90"
   inkscape:export-ydpi="90">
  <defs
     id="defs4138">
    <linearGradient
       inkscape:collect="always"
       id="linearGradient4257">
      <stop
         style="stop-color:#076324;stop-opacity:1;"
         offset="0"
         id="stop4259" />
      <stop
         style="stop-color:#076324;stop-opacity:0;"
         offset="1"
         id="stop4261" />
    </linearGradient>
    <linearGradient
       inkscape:collect="always"
       xlink:href="#linearGradient4257"
       id="linearGradient4263"
       x1="42.624736"
       y1="905.97549"
       x2="602.20822"
       y2="905.97549"
       gradientUnits="userSpaceOnUse" />
    <linearGradient
       inkscape:collect="always"
       xlink:href="#linearGradient4257"
       id="linearGradient4267"
       x1="217.27397"
       y1="704.45718"
       x2="846.42301"
       y2="704.45718"
       gradientUnits="userSpaceOnUse" />
    <linearGradient
       gradientUnits="userSpaceOnUse"
       gradientTransform="matrix(1.2224388,0,0,0.81803685,653.8008,0)"
       id="grad21"
       x1="2987.7651"
       x2="3223.8767"
       y1="4557.5257"
       y2="4802.302">
      <stop
         offset="0"
         stop-color="#470808"
         id="stop4417" />
      <stop
         offset=".65"
         stop-color="#700d0d"
         id="stop4419" />
      <stop
         offset="1"
         stop-color="#8c1111"
         id="stop4421" />
    </linearGradient>
    <linearGradient
       gradientUnits="userSpaceOnUse"
       gradientTransform="matrix(0.6566773,0,0,1.522818,653.8008,0)"
       id="grad41"
       x1="4459.9531"
       x2="4840.2769"
       y1="4260.8185"
       y2="3973.0059">
      <stop
         offset="0"
         stop-color="#cd1919"
         id="stop4431" />
      <stop
         offset=".5"
         stop-color="#ca1919"
         id="stop4433" />
      <stop
         offset="1"
         stop-color="#8c1111"
         id="stop4435" />
    </linearGradient>
    <linearGradient
       gradientUnits="userSpaceOnUse"
       gradientTransform="matrix(1.8552896,0,0,0.53899942,653.8008,0)"
       id="grad24"
       x1="947.23646"
       x2="681.11369"
       y1="8029.8417"
       y2="8586.2801">
      <stop
         offset="0"
         stop-color="#470808"
         id="stop4424" />
      <stop
         offset=".5"
         stop-color="#a91414"
         id="stop4426" />
      <stop
         offset="1"
         stop-color="#cd1919"
         id="stop4428" />
    </linearGradient>
    <linearGradient
       gradientUnits="userSpaceOnUse"
       gradientTransform="matrix(1.2481278,0,0,0.80119997,653.8008,0)"
       id="cgradxx"
       x1="2138.4027"
       x2="2015.4746"
       y1="5743.8844"
       y2="5888.8295">
      <stop
         offset="0"
         stop-color="#700d0d"
         id="stop4468" />
      <stop
         offset="1"
         stop-color="#ca1919"
         id="stop4470" />
    </linearGradient>
    <linearGradient
       gradientUnits="userSpaceOnUse"
       id="cgrad44"
       x1="2441.1"
       x2="2467.28"
       y1="4604"
       y2="4777.91"
       gradientTransform="translate(653.8008,0)">
      <stop
         offset="0"
         stop-color="#a91414"
         id="stop4438" />
      <stop
         offset="1"
         stop-color="#cd1919"
         id="stop4440" />
    </linearGradient>
    <linearGradient
       gradientUnits="userSpaceOnUse"
       gradientTransform="matrix(1.1356299,0,0,0.88056861,653.8008,0)"
       id="cgrad11"
       x1="2348.8023"
       x2="2254.9425"
       y1="5227.3042"
       y2="5385.3839">
      <stop
         offset="0"
         stop-color="#700d0d"
         id="stop4443" />
      <stop
         offset="1"
         stop-color="#ca1919"
         id="stop4445" />
    </linearGradient>
    <linearGradient
       gradientUnits="userSpaceOnUse"
       gradientTransform="matrix(1.1047308,0,0,0.90519791,653.8008,0)"
       id="cgrad22"
       x1="2260.9581"
       x2="2149.9989"
       y1="4880.7006"
       y2="5045.0846">
      <stop
         offset="0"
         stop-color="#470808"
         id="stop4448" />
      <stop
         offset="1"
         stop-color="#a91414"
         id="stop4450" />
    </linearGradient>
    <linearGradient
       gradientUnits="userSpaceOnUse"
       gradientTransform="matrix(0.9537936,0,0,1.0484449,653.8008,0)"
       id="cgrad4c"
       x1="2559.2539"
       x2="2608.6986"
       y1="4391.2657"
       y2="4554.7078">
      <stop
         offset="0"
         stop-color="#a91414"
         id="stop4453" />
      <stop
         offset="1"
         stop-color="#ca1919"
         id="stop4455" />
    </linearGradient>
    <linearGradient
       gradientUnits="userSpaceOnUse"
       gradientTransform="matrix(0.91726731,0,0,1.0901947,653.8008,0)"
       id="cgrad1c"
       x1="2908.6396"
       x2="2777.6309"
       y1="4222.1814"
       y2="4319.2742">
      <stop
         offset="0"
         stop-color="#700d0d"
         id="stop4458" />
      <stop
         offset="1"
         stop-color="#ca1919"
         id="stop4460" />
    </linearGradient>
    <linearGradient
       gradientUnits="userSpaceOnUse"
       gradientTransform="matrix(2.5467066,0,0,0.39266401,653.8008,0)"
       id="cgrad2c"
       x1="1047.6276"
       x2="973.64574"
       y1="11722.49"
       y2="11774.188">
      <stop
         offset="0"
         stop-color="#700d0d"
         id="stop4463" />
      <stop
         offset="1"
         stop-color="#b51616"
         id="stop4465" />
    </linearGradient>
    <linearGradient
       gradientUnits="userSpaceOnUse"
       gradientTransform="matrix(0.85562316,0,0,1.1687388,653.8008,0)"
       id="grad1"
       x1="4492.4956"
       x2="5626.0678"
       xlink:href="#BWgrad"
       y1="5053.9493"
       y2="4328.4631" />
    <linearGradient
       id="BWgrad">
      <stop
         offset="0"
         stop-color="#000"
         id="stop4409" />
      <stop
         offset="1"
         stop-color="#fff"
         id="stop4411" />
    </linearGradient>
    <linearGradient
       gradientUnits="userSpaceOnUse"
       gradientTransform="scale(0.9492988,1.0534091)"
       id="grad4"
       x1="8418.4125"
       x2="-27.168189"
       xlink:href="#BWgrad"
       y1="5771.5676"
       y2="5771.5676" />
    <linearGradient
       id="linearGradient5043"
       x1="3"
       x2="-0.25"
       xlink:href="#BWgrad"
       y1="0.5"
       y2="0.5" />
    <linearGradient
       gradientUnits="userSpaceOnUse"
       gradientTransform="scale(0.7708191,1.2973212)"
       id="grad2"
       x1="3891.9637"
       x2="2279.1652"
       xlink:href="#BWgrad"
       y1="4363.7142"
       y2="-474.68148" />
    <linearGradient
       id="linearGradient5082"
       x1="1"
       x2="-0.5"
       xlink:href="#BWgrad"
       y1="2"
       y2="-2.5" />
    <linearGradient
       gradientUnits="userSpaceOnUse"
       gradientTransform="scale(1.1037881,0.90597103)"
       id="grad56"
       x1="7514.2174"
       x2="7800.4308"
       y1="4531.8888"
       y2="4825.3176">
      <stop
         offset="0"
         stop-color="#9a1212"
         id="stop4476" />
      <stop
         offset=".7"
         stop-color="#da1a1a"
         id="stop4478" />
      <stop
         offset="1"
         stop-color="#ce1919"
         id="stop4480" />
    </linearGradient>
    <linearGradient
       gradientUnits="userSpaceOnUse"
       gradientTransform="scale(0.60009625,1.6663994)"
       id="grad35"
       x1="15673.152"
       x2="15151.236"
       y1="887.28294"
       y2="1213.0307">
      <stop
         offset="0"
         stop-color="#570a0a"
         id="stop4490" />
      <stop
         offset="1"
         stop-color="#9a1212"
         id="stop4492" />
    </linearGradient>
    <linearGradient
       gradientUnits="userSpaceOnUse"
       gradientTransform="scale(1.4809062,0.67526221)"
       id="grad36"
       x1="7624.3417"
       x2="7317.4387"
       y1="5419.6428"
       y2="5838.1469">
      <stop
         offset="0"
         stop-color="#570a0a"
         id="stop4483" />
      <stop
         offset=".5"
         stop-color="#ba1616"
         id="stop4485" />
      <stop
         offset="1"
         stop-color="#ce1919"
         id="stop4487" />
    </linearGradient>
    <linearGradient
       gradientUnits="userSpaceOnUse"
       gradientTransform="scale(1.5781527,0.63365223)"
       id="cgrad53"
       x1="6199.0198"
       x2="6168.9086"
       y1="4974.3374"
       y2="5235.3007">
      <stop
         offset="0"
         stop-color="#570a0a"
         id="stop4495" />
      <stop
         offset="1"
         stop-color="#bd1717"
         id="stop4497" />
    </linearGradient>
    <linearGradient
       gradientUnits="userSpaceOnUse"
       gradientTransform="scale(1.0357681,0.96546709)"
       id="cgrad56"
       x1="9062.8395"
       x2="9163.1226"
       y1="3358.9959"
       y2="3604.3694">
      <stop
         offset="0"
         stop-color="#9a1212"
         id="stop4500" />
      <stop
         offset="1"
         stop-color="#da1a1a"
         id="stop4502" />
    </linearGradient>
    <linearGradient
       gradientUnits="userSpaceOnUse"
       gradientTransform="scale(1.0285772,0.97221679)"
       id="cgrad6c"
       x1="9448.0027"
       x2="9379.8698"
       y1="3440.0764"
       y2="3582.02">
      <stop
         offset="0"
         stop-color="#ba1616"
         id="stop4505" />
      <stop
         offset="1"
         stop-color="#da1a1a"
         id="stop4507" />
    </linearGradient>
    <linearGradient
       gradientUnits="userSpaceOnUse"
       gradientTransform="scale(0.95494351,1.0471824)"
       id="cgrad63"
       x1="10244.585"
       x2="10179.157"
       y1="3009.9819"
       y2="3201.6582">
      <stop
         offset="0"
         stop-color="#570a0a"
         id="stop4510" />
      <stop
         offset="1"
         stop-color="#bd1717"
         id="stop4512" />
    </linearGradient>
    <linearGradient
       gradientUnits="userSpaceOnUse"
       gradientTransform="scale(0.87201873,1.1467644)"
       id="cgrad66"
       x1="11144.256"
       x2="10965.109"
       y1="2916.0306"
       y2="2962.9104">
      <stop
         offset="0"
         stop-color="#ba1616"
         id="stop4515" />
      <stop
         offset="1"
         stop-color="#da1a1a"
         id="stop4517" />
    </linearGradient>
    <radialGradient
       gradientUnits="userSpaceOnUse"
       r="201"
       fy="3310"
       fx="9607"
       cy="3310"
       cx="9607"
       id="rcgrad">
      <stop
         offset="0"
         stop-color="#bd1717"
         stop-opacity="1"
         id="stop4520" />
      <stop
         offset="1"
         stop-color="#bd1717"
         stop-opacity="0"
         id="stop4522" />
    </radialGradient>
    <linearGradient
       gradientUnits="userSpaceOnUse"
       gradientTransform="scale(1.3789919,0.72516744)"
       id="grad6"
       x1="463.32632"
       x2="8506.2141"
       xlink:href="#BWgrad"
       y1="-22.414156"
       y2="8020.4736" />
    <linearGradient
       id="linearGradient5134"
       x1="-1.9"
       x2="1"
       xlink:href="#BWgrad"
       y1="-1.9"
       y2="1" />
    <linearGradient
       gradientUnits="userSpaceOnUse"
       gradientTransform="scale(0.93426318,1.0703622)"
       id="grad3"
       x1="8399.5312"
       x2="15715.188"
       xlink:href="#BWgrad"
       y1="4016.3583"
       y2="-2173.8131" />
    <linearGradient
       id="linearGradient5189"
       x1="-0.60000002"
       x2="2"
       xlink:href="#BWgrad"
       y1="1.2"
       y2="-1" />
    <linearGradient
       gradientUnits="userSpaceOnUse"
       gradientTransform="scale(0.78381676,1.2758084)"
       id="grad5"
       x1="10796.563"
       x2="9065.9904"
       xlink:href="#BWgrad"
       y1="4727.9192"
       y2="978.34615" />
    <linearGradient
       id="linearGradient5220"
       x1="0.69999999"
       x2="0.1"
       xlink:href="#BWgrad"
       y1="1.4"
       y2="0.1" />
    <linearGradient
       gradientUnits="userSpaceOnUse"
       gradientTransform="scale(0.89714604,1.1146457)"
       y2="6381.6562"
       x2="2656.4582"
       y1="6381.6562"
       x1="4611.4613"
       id="linearGradient5312"
       xlink:href="#BWgrad"
       inkscape:collect="always" />
    <linearGradient
       gradientUnits="userSpaceOnUse"
       gradientTransform="scale(0.89402059,1.1185425)"
       y2="6121.806"
       x2="1200.0399"
       y1="6121.806"
       x1="3074.1305"
       id="linearGradient5314"
       xlink:href="#BWgrad"
       inkscape:collect="always" />
    <linearGradient
       gradientUnits="userSpaceOnUse"
       gradientTransform="scale(0.89154038,1.1216542)"
       y2="4685.2135"
       x2="1981.5"
       y1="4685.2135"
       x1="3970.9966"
       id="linearGradient5316"
       xlink:href="#BWgrad"
       inkscape:collect="always" />
    <linearGradient
       gradientUnits="userSpaceOnUse"
       gradientTransform="scale(0.87842367,1.1384028)"
       y2="4431.7653"
       x2="526.00824"
       y1="4431.7653"
       x1="2433.2258"
       id="linearGradient5318"
       xlink:href="#BWgrad"
       inkscape:collect="always" />
    <linearGradient
       gradientUnits="userSpaceOnUse"
       gradientTransform="scale(1.4583401,0.68571111)"
       y2="4454.2789"
       x2="1236.3441"
       y1="6726.6245"
       x1="1993.7926"
       id="linearGradient5320"
       xlink:href="#BWgrad"
       inkscape:collect="always" />
    <linearGradient
       gradientUnits="userSpaceOnUse"
       gradientTransform="scale(1.4802573,0.67555821)"
       y2="3078.2164"
       x2="1323.3739"
       y1="5188.1186"
       x1="2026.6746"
       id="linearGradient5322"
       xlink:href="#BWgrad"
       inkscape:collect="always" />
    <linearGradient
       gradientUnits="userSpaceOnUse"
       gradientTransform="scale(1.3731031,0.72827742)"
       y2="7986.2236"
       x2="7493.9747"
       y1="6368.5102"
       x1="5876.2613"
       id="linearGradient5324"
       xlink:href="#BWgrad"
       inkscape:collect="always" />
    <linearGradient
       gradientUnits="userSpaceOnUse"
       gradientTransform="scale(1.3612639,0.73461139)"
       y2="7268.6635"
       x2="6381.3884"
       y1="5604.2815"
       x1="4717.0064"
       id="linearGradient5326"
       xlink:href="#BWgrad"
       inkscape:collect="always" />
    <linearGradient
       gradientUnits="userSpaceOnUse"
       gradientTransform="scale(1.3488941,0.74134804)"
       y2="7148.4461"
       x2="8154.8285"
       y1="5491.333"
       x1="6497.7154"
       id="linearGradient5328"
       xlink:href="#BWgrad"
       inkscape:collect="always" />
    <linearGradient
       gradientUnits="userSpaceOnUse"
       gradientTransform="scale(1.3389722,0.74684149)"
       y2="6436.4846"
       x2="7012.8415"
       y1="4727.7039"
       x1="5304.0609"
       id="linearGradient5330"
       xlink:href="#BWgrad"
       inkscape:collect="always" />
    <linearGradient
       gradientUnits="userSpaceOnUse"
       gradientTransform="scale(1.3415915,0.74538339)"
       y2="6392.8295"
       x2="8743.3472"
       y1="4706.7723"
       x1="7057.2899"
       id="linearGradient5332"
       xlink:href="#BWgrad"
       inkscape:collect="always" />
    <linearGradient
       gradientUnits="userSpaceOnUse"
       gradientTransform="scale(1.3415468,0.74540818)"
       y2="5700.2512"
       x2="7542.8697"
       y1="3972.8214"
       x1="5815.4399"
       id="linearGradient5334"
       xlink:href="#BWgrad"
       inkscape:collect="always" />
    <linearGradient
       gradientUnits="userSpaceOnUse"
       gradientTransform="scale(0.93343181,1.0713155)"
       y2="2180.9775"
       x2="13547.747"
       y1="3577.4985"
       x1="11897.313"
       id="linearGradient5336"
       xlink:href="#BWgrad"
       inkscape:collect="always" />
    <linearGradient
       gradientUnits="userSpaceOnUse"
       gradientTransform="scale(0.94544935,1.0576981)"
       y2="1117.2276"
       x2="12309.283"
       y1="2509.4726"
       x1="10663.902"
       id="linearGradient5338"
       xlink:href="#BWgrad"
       inkscape:collect="always" />
    <linearGradient
       gradientUnits="userSpaceOnUse"
       gradientTransform="scale(0.95504877,1.047067)"
       y2="20.018635"
       x2="11136.449"
       y1="1415.0806"
       x1="9487.7393"
       id="linearGradient5340"
       xlink:href="#BWgrad"
       inkscape:collect="always" />
    <linearGradient
       gradientUnits="userSpaceOnUse"
       gradientTransform="scale(0.81594353,1.225575)"
       y2="1972.1226"
       x2="9523.1607"
       y1="2783.6968"
       x1="9897.7333"
       id="linearGradient5342"
       xlink:href="#BWgrad"
       inkscape:collect="always" />
    <linearGradient
       gradientUnits="userSpaceOnUse"
       gradientTransform="scale(0.80927495,1.235674)"
       y2="1711.4518"
       x2="8561.9671"
       y1="2498.3441"
       x1="8925.1482"
       id="linearGradient5344"
       xlink:href="#BWgrad"
       inkscape:collect="always" />
    <linearGradient
       gradientUnits="userSpaceOnUse"
       gradientTransform="scale(0.83061167,1.203932)"
       y2="794.13573"
       x2="9961.0919"
       y1="1613.5165"
       x1="10339.268"
       id="linearGradient5346"
       xlink:href="#BWgrad"
       inkscape:collect="always" />
    <linearGradient
       gradientUnits="userSpaceOnUse"
       gradientTransform="scale(0.83132549,1.2028983)"
       y2="2276.1693"
       x2="10411.804"
       y1="3119.1352"
       x1="10800.865"
       id="linearGradient5348"
       xlink:href="#BWgrad"
       inkscape:collect="always" />
    <linearGradient
       gradientUnits="userSpaceOnUse"
       gradientTransform="scale(0.81614351,1.2252747)"
       y2="3159.9255"
       x2="8902.5149"
       y1="3971.2539"
       x1="9276.9741"
       id="linearGradient5350"
       xlink:href="#BWgrad"
       inkscape:collect="always" />
  </defs>
  <sodipodi:namedview
     id="base"
     pagecolor="#ffffff"
     bordercolor="#666666"
     borderopacity="1.0"
     inkscape:pageopacity="0.0"
     inkscape:pageshadow="2"
     inkscape:zoom="1.0353279"
     inkscape:cx="284.12658"
     inkscape:cy="555.09532"
     inkscape:document-units="px"
     inkscape:current-layer="layer1"
     showgrid="false"
     units="px"
     inkscape:window-width="3840"
     inkscape:window-height="2051"
     inkscape:window-x="0"
     inkscape:window-y="30"
     inkscape:window-maximized="1" />
  <metadata
     id="metadata4141">
    <rdf:RDF>
      <cc:Work
         rdf:about="">
        <dc:format>image/svg+xml</dc:format>
        <dc:type
           rdf:resource="http://purl.org/dc/dcmitype/StillImage" />
        <dc:title />
      </cc:Work>
    </rdf:RDF>
  </metadata>
  <g
     inkscape:label="Layer 1"
     inkscape:groupmode="layer"
     id="layer1"
     transform="translate(0,-28.362161)">
    <rect
       style="opacity:1;fill:#076324;fill-opacity:1;fill-rule:nonzero;stroke:none;stroke-width:0.99105471;stroke-linecap:butt;stroke-linejoin:round;stroke-miterlimit:4;stroke-dasharray:none;stroke-dashoffset:0;stroke-opacity:0"
       id="rect4243"
       width="1024"
       height="1024"
       x="0.49552736"
       y="27.866695" />
    <g
       transform="matrix(0.09177107,0,0,-0.09089116,-93.572347,784.01119)"
       id="g4524">
      <!-- left die -->
      <!-- faces -->
      <path
         style="fill:#8c1111"
         inkscape:connector-curvature="0"
         d="m 4200.8008,7823 c -3,-5 -42,-127 -87,-273 -123,-400 -169,-546 -200,-645 -15,-49 -44,-144 -65,-210 -20,-66 -70,-226 -110,-355 -40,-129 -142,-455 -225,-725 -84,-269 -183,-589 -221,-711 -38,-122 -69,-226 -69,-231 0,-10 159,-118 1622,-1097 l 848,-566 28,39 c 16,22 34,53 40,68 6,15 203,665 438,1443 474,1569 453,1485 400,1594 -16,33 -44,69 -69,89 -95,76 -2200,1549 -2239,1567 -45,20 -84,26 -91,13 z"
         id="path4526" />
      <path
         style="fill:#cd1919"
         inkscape:connector-curvature="0"
         d="m 4143.8008,7833 c -67,-13 -2070,-435 -2101,-443 -48,-13 -113,-62 -143,-107 -37,-56 -987,-2834 -993,-2905 -5,-54 -4,-58 15,-58 11,0 157,20 324,45 167,25 676,99 1132,164 455,66 830,122 833,125 6,5 80,242 303,961 83,270 185,596 225,725 40,129 90,289 110,355 21,66 50,161 65,210 120,384 282,910 284,919 1,12 -20,15 -54,9 z"
         id="path4528" />
      <path
         style="fill:#470808"
         inkscape:connector-curvature="0"
         d="m 3211.8008,4655 c -3,-4 -332,-53 -729,-111 -1065,-153 -1563,-226 -1568,-230 -2,-2 1,-22 8,-44 27,-90 36,-96 1243,-829 720,-437 1155,-696 1184,-703 42,-12 164,-1 1127,96 609,61 1098,115 1121,123 53,18 94,49 81,61 -5,5 -426,287 -935,627 -509,340 -1055,706 -1213,812 -299,201 -309,208 -319,198 z"
         id="path4530" />
      <!-- edges -->
      <path
         style="fill:url(#grad21)"
         inkscape:connector-curvature="0"
         d="m 3127.8008,4434 2386,-1489 c 149,17 198,41 262,217 l -2382,1555 z"
         id="path4532" />
      <path
         style="fill:url(#grad41)"
         inkscape:connector-curvature="0"
         d="m 3035.8008,4780 377,-76 973,3043 c -159,103 -171,102 -347,64 z"
         id="path4534" />
      <path
         style="fill:url(#grad24)"
         inkscape:connector-curvature="0"
         d="m 938.8008,4488 c -68,-221 -21,-262 102,-349 l 2111,279 -112,373 z"
         id="path4536" />
      <!-- corner -->
      <path
         style="fill:url(#cgradxx)"
         inkscape:connector-curvature="0"
         d="m 3322.8008,4602 -229,1 132,146 z"
         id="path4538" />
      <path
         style="fill:url(#cgrad44)"
         inkscape:connector-curvature="0"
         d="m 3038.8008,4791 56,-187 131,144 z"
         id="path4540" />
      <path
         style="fill:url(#cgrad11)"
         inkscape:connector-curvature="0"
         d="m 3412.8008,4704 -91,-101 -96,145 z"
         id="path4542" />
      <path
         style="fill:url(#cgrad22)"
         inkscape:connector-curvature="0"
         d="m 3150.8008,4418 171,185 -227,1 z"
         id="path4544" />
      <path
         style="fill:url(#cgrad4c)"
         inkscape:connector-curvature="0"
         d="m 3094.8008,4604 131,144 -25,-111 z"
         id="path4546" />
      <path
         style="fill:url(#cgrad1c)"
         inkscape:connector-curvature="0"
         d="m 3321.8008,4603 -96,145 -26,-111 z"
         id="path4548" />
      <path
         style="fill:url(#cgrad2c)"
         inkscape:connector-curvature="0"
         d="m 3321.8008,4603 -227,1 106,34 z"
         id="path4550" />
      <!-- spots -->
      <path
         style="fill:url(#grad1)"
         inkscape:connector-curvature="0"
         d="m 4949.8008,5768 c -58,-16 -138,-98 -167,-173 -33,-86 -33,-243 1,-330 57,-148 147,-232 261,-243 143,-14 258,119 267,308 2,48 -1,111 -8,143 -28,135 -127,261 -230,291 -60,18 -69,18 -124,4 z"
         id="path4552" />
      <g
         style="fill:url(#grad4)"
         id="g4554"
         transform="translate(653.8008,0)">
        <path
           style="fill:url(#linearGradient5312)"
           inkscape:connector-curvature="0"
           d="m 2864,7432 c -212,-74 -403,-412 -330,-587 30,-71 112,-87 212,-41 68,31 182,143 232,227 103,175 107,363 8,404 -45,19 -59,18 -122,-3 z"
           id="path4556" />
        <path
           style="fill:url(#linearGradient5314)"
           inkscape:connector-curvature="0"
           d="m 1500,7144 c -142,-81 -265,-256 -292,-416 -14,-80 -5,-130 32,-171 25,-29 34,-32 82,-32 93,1 206,85 293,216 106,159 133,326 65,399 -24,26 -35,30 -82,30 -38,0 -65,-7 -98,-26 z"
           id="path4558" />
        <path
           style="fill:url(#linearGradient5316)"
           inkscape:connector-curvature="0"
           d="m 2260,5591 c -122,-37 -276,-209 -329,-366 -42,-127 -37,-216 17,-276 99,-110 337,37 447,276 60,129 70,245 29,315 -30,50 -97,71 -164,51 z"
           id="path4560" />
        <path
           style="fill:url(#linearGradient5318)"
           inkscape:connector-curvature="0"
           d="m 925,5368 c -161,-58 -321,-289 -333,-479 -3,-59 0,-84 13,-113 88,-186 420,57 491,360 40,173 -39,279 -171,232 z"
           id="path4562" />
      </g>
      <g
         style="fill:url(#grad2)"
         id="g4564"
         transform="translate(653.8008,0)">
        <path
           style="fill:url(#linearGradient5320)"
           inkscape:connector-curvature="0"
           d="m 2246,4259 c -89,-21 -98,-66 -30,-139 99,-106 353,-200 541,-200 182,0 202,89 44,194 -156,104 -431,176 -555,145 z"
           id="path4566" />
        <path
           style="fill:url(#linearGradient5322)"
           inkscape:connector-curvature="0"
           d="m 2370,3180 c -41,-10 -70,-42 -63,-70 9,-33 96,-104 176,-143 114,-56 236,-88 353,-94 123,-7 164,8 164,59 0,85 -250,216 -474,247 -87,12 -106,12 -156,1 z"
           id="path4568" />
      </g>
      <!-- right die -->
      <!-- faces -->
      <path
         style="fill:#570a0a"
         inkscape:connector-curvature="0"
         d="m 11500,3970 c -481,-159 -1109,-365 -1396,-459 l -520,-171 -17,-72 c -9,-40 -116,-512 -237,-1048 -121,-536 -270,-1195 -331,-1464 -91,-399 -109,-490 -98,-497 8,-5 44,-9 81,-9 65,0 120,20 1314,466 796,298 1263,478 1292,498 26,17 59,51 74,76 21,35 107,350 388,1430 198,762 354,1339 355,1425 0,45 -12,115 -23,114 -4,0 -401,-131 -882,-289 z"
         id="path4570" />
      <path
         style="fill:#9a1212"
         inkscape:connector-curvature="0"
         d="m 7176,5203 c -14,-21 -30,-51 -35,-68 -6,-16 -128,-655 -271,-1419 -198,-1052 -260,-1399 -255,-1430 4,-23 18,-64 31,-93 23,-47 119,-132 1094,-972 587,-506 1086,-929 1107,-941 21,-11 39,-17 40,-13 3,11 193,846 443,1953 116,514 220,972 231,1018 10,46 19,88 19,92 0,5 -528,431 -1172,946 -645,516 -1181,944 -1190,952 -15,12 -19,10 -42,-25 z"
         id="path4572" />
      <path
         style="fill:#ce1919"
         inkscape:connector-curvature="0"
         d="M 8571,5685 C 7552,5387 7289,5306 7256,5283 c -22,-16 -41,-34 -41,-41 0,-6 532,-437 1182,-957 l 1183,-946 1082,355 c 596,195 1224,401 1397,458 173,57 316,108 318,114 12,37 -88,115 -1178,915 -618,453 -1148,836 -1178,852 -101,51 -42,65 -1450,-348 z"
         id="path4574" />
      <!-- edges -->
      <path
         style="fill:url(#grad56)"
         inkscape:connector-curvature="0"
         d="m 7372,5326 c -25,-7 -67,-19 -90,-29 -84,-38 -129,-102 -147,-189 l -9,-48 1140,-922 c 629,-508 1164,-933 1189,-946 l 56,-29 90,-16 51,8 c 99,17 158,145 114,249 -14,34 -84,109 -157,168 z"
         id="path4576" />
      <path
         style="fill:url(#grad35)"
         inkscape:connector-curvature="0"
         d="M 9387,3243 9061,1840 8725,380 l 74,-62 c 65,-58 96,-68 168,-69 49,-1 114,18 174,41 l 664,2958 z"
         id="path4578" />
      <path
         style="fill:url(#grad36)"
         inkscape:connector-curvature="0"
         d="M 10923,3967 C 10202,3724 9656,3539 9652,3536 l 37,-205 91,-180 1304,437 1299,439 13,52 c 19,87 11,131 -14,192 -23,45 -79,86 -141,136 z"
         id="path4580" />
      <!-- corner -->
      <path
         style="fill:url(#cgrad53)"
         inkscape:connector-curvature="0"
         d="m 9387,3243 396,-91 -176,159 z"
         id="path4582" />
      <path
         style="fill:url(#cgrad56)"
         inkscape:connector-curvature="0"
         d="m 9387,3243 185,206 36,-139 z"
         id="path4584" />
      <path
         style="fill:url(#cgrad6c)"
         inkscape:connector-curvature="0"
         d="m 9718,3344 -146,104 35,-138 z"
         id="path4586" />
      <path
         style="fill:url(#cgrad63)"
         inkscape:connector-curvature="0"
         d="m 9718,3345 65,-193 -176,158 z"
         id="path4588" />
      <path
         style="fill:url(#cgrad66)"
         inkscape:connector-curvature="0"
         d="m 9652,3536 -80,-88 146,-104 z"
         id="path4590" />
      <circle
         style="fill:url(#rcgrad)"
         cx="9607"
         cy="3310"
         r="201"
         id="circle4592" />
      <!-- spots -->
      <g
         style="fill:url(#grad6)"
         id="g4594">
        <path
           style="fill:url(#linearGradient5324)"
           inkscape:connector-curvature="0"
           d="m 9671,5805 c -106,-30 -158,-86 -145,-154 17,-81 158,-183 310,-221 97,-25 248,-27 324,-4 67,20 130,78 130,119 0,96 -134,202 -315,250 -88,24 -238,28 -304,10 z"
           id="path4596" />
        <path
           style="fill:url(#linearGradient5326)"
           inkscape:connector-curvature="0"
           d="m 8075,5333 c -85,-19 -147,-64 -165,-119 -32,-97 110,-224 309,-275 98,-26 245,-28 324,-5 61,18 123,64 138,104 37,97 -109,232 -307,282 -73,19 -241,26 -299,13 z"
           id="path4598" />
        <path
           style="fill:url(#linearGradient5328)"
           inkscape:connector-curvature="0"
           d="m 10405,5293 c -143,-32 -202,-102 -165,-197 24,-63 160,-155 280,-190 245,-71 480,-11 480,122 0,71 -109,174 -234,221 -110,41 -281,62 -361,44 z"
           id="path4600" />
        <path
           style="fill:url(#linearGradient5330)"
           inkscape:connector-curvature="0"
           d="m 8797,4800 c -27,-5 -74,-21 -104,-35 -156,-77 -108,-229 102,-330 95,-46 191,-67 305,-68 120,-1 197,22 252,73 33,32 38,43 38,81 0,94 -91,182 -249,239 -118,43 -239,57 -344,40 z"
           id="path4602" />
        <path
           style="fill:url(#linearGradient5332)"
           inkscape:connector-curvature="0"
           d="m 11130,4760 c -117,-21 -180,-71 -180,-141 0,-50 17,-84 67,-130 110,-105 299,-167 472,-156 109,7 156,23 203,68 31,29 38,43 38,73 0,107 -125,211 -319,265 -84,23 -217,33 -281,21 z"
           id="path4604" />
        <path
           style="fill:url(#linearGradient5334)"
           inkscape:connector-curvature="0"
           d="m 9463,4236 c -96,-30 -143,-80 -143,-151 0,-50 20,-84 81,-139 107,-96 244,-141 429,-141 109,0 132,3 176,23 138,62 151,170 32,277 -103,92 -262,145 -432,144 -56,0 -120,-6 -143,-13 z"
           id="path4606" />
      </g>
      <g
         style="fill:url(#grad3)"
         id="g4608">
        <path
           style="fill:url(#linearGradient5336)"
           inkscape:connector-curvature="0"
           d="m 11842,3682 c -253,-90 -468,-476 -346,-622 102,-121 369,24 499,272 123,234 42,419 -153,350 z"
           id="path4610" />
        <path
           style="fill:url(#linearGradient5338)"
           inkscape:connector-curvature="0"
           d="m 10785,2491 c -150,-71 -287,-238 -330,-402 -20,-72 -18,-116 4,-166 25,-55 67,-77 135,-71 147,12 317,159 407,353 59,126 49,264 -22,300 -47,25 -126,19 -194,-14 z"
           id="path4612" />
        <path
           style="fill:url(#linearGradient5340)"
           inkscape:connector-curvature="0"
           d="m 9760,1314 c -199,-99 -368,-367 -330,-525 22,-92 97,-125 206,-91 233,73 453,404 380,575 -22,53 -50,71 -119,75 -56,3 -70,0 -137,-34 z"
           id="path4614" />
      </g>
      <g
         style="fill:url(#grad5)"
         id="g4616">
        <path
           style="fill:url(#linearGradient5342)"
           inkscape:connector-curvature="0"
           d="m 7830,3088 c -34,-18 -52,-36 -75,-78 -59,-109 -43,-312 36,-460 90,-169 243,-253 340,-187 76,51 103,126 97,272 -7,155 -61,286 -161,385 -81,82 -164,106 -237,68 z"
           id="path4618" />
        <path
           style="fill:url(#linearGradient5344)"
           inkscape:connector-curvature="0"
           d="m 7006,2780 c -77,-23 -126,-121 -126,-248 0,-98 19,-175 70,-277 85,-175 231,-259 331,-192 112,73 119,327 16,522 -47,87 -133,170 -198,189 -59,18 -53,17 -93,6 z"
           id="path4620" />
        <path
           style="fill:url(#linearGradient5346)"
           inkscape:connector-curvature="0"
           d="m 8335,1630 c -30,-12 -72,-60 -90,-104 -78,-187 48,-531 227,-620 135,-67 240,-1 268,169 33,201 -103,483 -265,551 -37,15 -108,18 -140,4 z"
           id="path4622" />
        <path
           style="fill:url(#linearGradient5348)"
           inkscape:connector-curvature="0"
           d="m 8725,3428 c -76,-41 -115,-116 -122,-234 -11,-155 48,-320 153,-434 67,-72 121,-100 195,-100 73,0 118,31 155,106 118,241 -84,675 -313,674 -26,0 -57,-6 -68,-12 z"
           id="path4624" />
        <path
           style="fill:url(#linearGradient5350)"
           inkscape:connector-curvature="0"
           d="m 7305,4528 c -47,-41 -72,-91 -85,-171 -25,-159 42,-361 159,-478 115,-115 239,-111 304,9 84,155 35,421 -107,579 -58,64 -115,93 -184,93 -43,0 -57,-5 -87,-32 z"
           id="path4626" />
      </g>
    </g>
    <text
       xml:space="preserve"
       style="font-style:normal;font-variant:normal;font-weight:normal;font-stretch:normal;font-size:256.58605957px;line-height:100%;font-family:Panton;-inkscape-font-specification:'Panton, Normal';text-align:start;letter-spacing:0px;word-spacing:0px;writing-mode:lr-tb;text-anchor:start;fill:#ffffff;fill-opacity:1;stroke:none;stroke-width:1px;stroke-linecap:butt;stroke-linejoin:miter;stroke-opacity:1;"
       x="204.44467"
       y="795.54523"
       id="text4144"
       sodipodi:linespacing="100%"><tspan
         sodipodi:role="line"
         id="tspan4181"
         style="letter-spacing:0px;fill-opacity:1;fill:#ffffff;"
         x="204.44467"
         y="795.54523">IAR'S</tspan></text>
    <text
       sodipodi:linespacing="100%"
       id="text4150"
       y="997.06354"
       x="29.795433"
       style="font-style:normal;font-variant:normal;font-weight:normal;font-stretch:normal;font-size:256.58605957px;line-height:100%;font-family:Panton;-inkscape-font-specification:'Panton, Normal';text-align:start;letter-spacing:0px;word-spacing:0px;writing-mode:lr-tb;text-anchor:start;fill:#ffffff;fill-opacity:1;stroke:none;stroke-width:1px;stroke-linecap:butt;stroke-linejoin:miter;stroke-opacity:1;"
       xml:space="preserve"><tspan
         sodipodi:role="line"
         id="tspan4183"
         x="29.795433"
         y="997.06354"
         style="fill-opacity:1;fill:#ffffff;">D<tspan
   style="letter-spacing:5.25067234px;fill-opacity:1;fill:#ffffff;"
   id="tspan4241">ICE</tspan></tspan></text>
    <g
       style="font-style:normal;font-variant:normal;font-weight:normal;font-stretch:normal;font-size:229.18751526px;line-height:100%;font-family:Panton;-inkscape-font-specification:'Panton, Normal';text-align:start;letter-spacing:0px;word-spacing:0px;writing-mode:lr-tb;text-anchor:start;fill:#ffffff;fill-opacity:1;stroke:none;stroke-width:1px;stroke-linecap:butt;stroke-linejoin:miter;stroke-opacity:1"
       id="text4204"
       transform="matrix(1.1195464,0,0,1.1195464,-5.0956318,-74.873565)">
      <path
         d="m 78.37799,614.75135 -25.89819,0 c -7.334,0 -9.855063,2.52106 -9.855063,9.62588 l 0,143.47138 c 0,7.10481 2.521063,9.62588 9.855063,9.62588 l 118.75826,0 c 7.10481,0 9.62587,-2.52107 9.62587,-9.62588 l 0,-20.85606 c 0,-7.334 -2.52106,-9.62588 -9.62587,-9.62588 l -83.234195,0 0,-112.98944 c 0,-7.10482 -2.291875,-9.62588 -9.625875,-9.62588 z"
         id="path4209"
         inkscape:connector-curvature="0"
         sodipodi:nodetypes="ssssssssscss"
         style="fill-opacity:1;fill:#ffffff" />
    </g>
  </g>
</svg>
