<svg xmlns="http://www.w3.org/2000/svg" width="656" height="111"><g transform="translate(-11 -121)" fill="#fff"><circle cx="67.5" cy="176.5" r="13.1"/><circle cx="140.5" cy="210.5" r="13.1"/><circle cx="208.5" cy="142.5" r="13.1"/><circle cx="250.5" cy="210.5" r="13.1"/><circle cx="318.5" cy="142.5" r="13.1"/><circle cx="284.5" cy="176.5" r="13.1"/><circle cx="359.5" cy="210.5" r="13.1"/><circle cx="427.5" cy="142.5" r="13.1"/><circle cx="359.5" cy="142.5" r="13.1"/><circle cx="427.5" cy="210.5" r="13.1"/><circle cx="467.5" cy="210.5" r="13.1"/><circle cx="535.5" cy="142.5" r="13.1"/><circle cx="467.5" cy="142.5" r="13.1"/><circle cx="535.5" cy="210.5" r="13.1"/><circle cx="501.5" cy="176.5" r="13.1"/><circle cx="576.5" cy="210.5" r="13.1"/><circle cx="644.5" cy="142.5" r="13.1"/><circle cx="576.5" cy="142.5" r="13.1"/><circle cx="644.5" cy="210.5" r="13.1"/><circle cx="644.5" cy="176.5" r="13.1"/><circle cx="576.5" cy="176.5" r="13.1"/></g></svg>
